mtllib sink.mtl
o Cube
v 0.100884 -0.188005 -0.100884
v 0.100884 -0.188005 0.100884
v -0.100884 -0.188005 0.100884
v -0.100884 -0.188005 -0.100884
v 0.100884 0.455311 -0.100884
v 0.100884 0.455311 0.100884
v -0.100884 0.455311 0.100884
v -0.100884 0.455311 -0.100884
v 0.245497 -0.282955 -0.245497
v 0.245497 -0.282955 0.245497
v -0.245497 -0.282955 -0.245497
v -0.245497 -0.282955 0.245497
v 0.110711 0.464874 -0.110711
v 0.110711 0.464874 0.110711
v -0.110711 0.464874 -0.110711
v -0.110711 0.464874 0.110711
v 0.123809 0.478266 -0.123809
v 0.123809 0.478266 0.123809
v -0.123809 0.478266 -0.123809
v -0.123809 0.478266 0.123809
v 0.141779 0.500864 -0.141779
v 0.141779 0.500864 0.141779
v -0.141779 0.500864 -0.141779
v -0.141779 0.500864 0.141779
v 0.165959 0.530995 -0.165959
v 0.165959 0.530995 0.165959
v -0.165959 0.530995 -0.165959
v -0.165959 0.530995 0.165959
v 0.205005 0.557778 -0.205005
v 0.205005 0.557778 0.205005
v -0.205005 0.557778 -0.205005
v -0.205005 0.557778 0.205005
v 0.263196 0.583724 -0.263196
v 0.263196 0.583724 0.263196
v -0.263196 0.583724 -0.263196
v -0.263196 0.583724 0.263196
v 0.274057 0.609670 -0.274057
v 0.274057 0.609670 0.274057
v -0.274057 0.609670 -0.274057
v -0.274057 0.609670 0.274057
v 0.274057 0.631432 -0.274057
v 0.274057 0.631432 0.274057
v -0.274057 0.631432 -0.274057
v -0.274057 0.631432 0.274057
v 0.256410 0.659052 -0.256410
v 0.256410 0.659052 0.256410
v -0.256410 0.659052 -0.256410
v -0.256410 0.659052 0.256410
v 0.222041 0.629445 -0.222041
v 0.222041 0.629445 0.222041
v -0.222041 0.629445 -0.222041
v -0.222041 0.629445 0.222041
v 0.180235 0.599839 -0.180234
v 0.180234 0.599839 0.180235
v -0.180235 0.599839 -0.180235
v -0.180235 0.599839 0.180234
v 0.118024 0.536482 -0.118024
v 0.118024 0.536482 0.118024
v -0.118024 0.536482 -0.118024
v -0.118024 0.536482 0.118024
v 0.100884 -0.188005 -0.033447
v 0.100884 -0.188005 0.033809
v -0.100884 -0.188005 0.033809
v -0.100884 -0.188005 -0.033447
v 0.100884 0.455311 -0.033447
v 0.100884 0.455311 0.033809
v -0.100884 0.455311 0.033809
v -0.100884 0.455311 -0.033447
v 0.245497 -0.282955 -0.081393
v 0.245497 -0.282955 0.082272
v -0.245497 -0.282955 0.082272
v -0.245497 -0.282955 -0.081393
v 0.110711 0.464874 -0.036705
v 0.110711 0.464874 0.037102
v -0.110711 0.464874 0.037102
v -0.110711 0.464874 -0.036705
v 0.123809 0.478266 -0.041048
v 0.123809 0.478266 0.041491
v -0.123809 0.478266 0.041491
v -0.123809 0.478266 -0.041048
v 0.141779 0.500864 -0.047006
v 0.141779 0.500864 0.047513
v -0.141779 0.500864 0.047513
v -0.141779 0.500864 -0.047006
v 0.165959 0.530995 -0.055023
v 0.165959 0.530995 0.055617
v -0.165959 0.530995 0.055617
v -0.165959 0.530995 -0.055023
v 0.205005 0.557778 -0.067968
v 0.205005 0.557778 0.068702
v -0.205005 0.557778 0.068702
v -0.205005 0.557778 -0.067968
v 0.263196 0.583724 -0.087261
v 0.263196 0.583724 0.088203
v -0.263196 0.583724 0.088203
v -0.263196 0.583724 -0.087261
v 0.274057 0.609670 -0.090862
v 0.274057 0.609670 0.091843
v -0.274057 0.609670 0.091843
v -0.274057 0.609670 -0.090862
v 0.274057 0.631432 -0.090862
v 0.274057 0.631432 0.091843
v -0.274057 0.631432 0.091843
v -0.274057 0.631432 -0.090862
v 0.256410 0.659052 -0.085011
v 0.256410 0.659052 0.085929
v -0.256818 0.659359 0.022535
v -0.257079 0.659359 -0.024370
v 0.222041 0.629445 -0.073616
v 0.222041 0.629445 0.074411
v -0.222041 0.629445 0.023611
v -0.222041 0.629445 -0.022774
v 0.180235 0.599839 -0.059756
v 0.180234 0.599839 0.060401
v -0.180235 0.599839 0.060401
v -0.180235 0.599839 -0.059756
v 0.118024 0.536482 -0.039130
v 0.118024 0.536482 0.039553
v -0.118024 0.536482 0.039552
v -0.118024 0.536482 -0.039130
v -0.256818 0.748659 0.022535
v -0.257079 0.748659 -0.024370
v -0.222041 0.718746 0.023611
v -0.222041 0.718746 -0.022774
v -0.172839 0.748759 0.022535
v -0.173007 0.748875 -0.024370
v -0.173190 0.718587 0.023611
v -0.173190 0.718587 -0.022774
v -0.148745 0.748544 0.022492
v -0.148913 0.748660 -0.024413
v -0.149096 0.718373 0.023567
v -0.149096 0.718373 -0.022817
v -0.171320 0.693899 0.015096
v -0.171320 0.693899 -0.014275
v -0.151406 0.693722 0.015068
v -0.151406 0.693722 -0.014302
v -0.175515 0.752028 0.017909
v -0.175720 0.752170 -0.019738
v -0.146008 0.751765 0.017874
v -0.146213 0.751907 -0.019773
v -0.178682 0.752041 0.021982
v -0.178932 0.752214 -0.023804
v -0.142796 0.751721 0.021940
v -0.143046 0.751894 -0.023846
v -0.178618 0.759225 0.021994
v -0.178868 0.759398 -0.023792
v -0.142732 0.758905 0.021951
v -0.142982 0.759078 -0.023835
v -0.170644 0.762509 0.011782
v -0.170782 0.762605 -0.013589
v -0.150759 0.762331 0.011758
v -0.150897 0.762427 -0.013612
vt 0.453262 0.176159
vt 0.664081 0.176159
vt 0.664081 0.808614
vt 0.453262 0.808614
vt 0.453262 0.176159
vt 0.664081 0.176159
vt 0.664081 0.808614
vt 0.453262 0.808614
vt 0.031625 0.597796
vt 0.664081 0.597796
vt 0.664081 0.808614
vt 0.031625 0.808614
vt 0.031625 0.176159
vt 0.664081 0.176159
vt 0.664081 0.808614
vt 0.031625 0.808614
vt 0.031625 0.597796
vt 0.664081 0.597796
vt 0.664081 0.808614
vt 0.031625 0.808614
vt 0.031625 0.176159
vt 0.664081 0.176159
vt 0.664081 0.808614
vt 0.031625 0.808614
vt 0.453262 0.176159
vt 0.664081 0.176159
vt 0.664081 0.808614
vt 0.453262 0.808614
vt 0.453262 0.176159
vt 0.664081 0.176159
vt 0.664081 0.808614
vt 0.453262 0.808614
vt 0.664081 0.176159
vt 0.031625 0.808614
vt 0.031625 0.176159
vt 0.664081 0.808614
vt 0.031625 0.808614
vt 0.031625 0.176159
vt 0.664081 0.176159
vt 0.664081 0.808614
vt 0.031625 0.808614
vt 0.453262 0.176159
vt 0.664081 0.176159
vt 0.664081 0.808614
vt 0.453262 0.808614
vt 0.664081 0.176159
vt 0.664081 0.808614
vt 0.031625 0.808614
vt 0.031625 0.176159
vt 0.664081 0.808614
vt 0.031625 0.808614
vt 0.031625 0.176159
vt 0.664081 0.176159
vt 0.664081 0.808614
vt 0.031625 0.808614
vt 0.453262 0.176159
vt 0.664081 0.176159
vt 0.664081 0.808614
vt 0.453262 0.808614
vt 0.453262 0.176159
vt 0.664081 0.176159
vt 0.664081 0.808614
vt 0.453262 0.808614
vt 0.031625 0.176159
vt 0.664081 0.176159
vt 0.664081 0.808614
vt 0.031625 0.808614
vt 0.453262 0.176159
vt 0.664081 0.176159
vt 0.664081 0.808614
vt 0.453262 0.808614
vt 0.453262 0.176159
vt 0.664081 0.176159
vt 0.664081 0.808614
vt 0.453262 0.808614
vt 0.453262 0.176159
vt 0.664081 0.176159
vt 0.664081 0.808614
vt 0.453262 0.808614
vt 0.031625 0.176159
vt 0.664081 0.176159
vt 0.664081 0.808614
vt 0.031625 0.808614
vt 0.031625 0.176159
vt 0.664081 0.176159
vt 0.664081 0.808614
vt 0.031625 0.808614
vt 0.031625 0.176159
vt 0.664081 0.176159
vt 0.664081 0.808614
vt 0.031625 0.808614
vt 0.031625 0.176159
vt 0.664081 0.176159
vt 0.664081 0.808614
vt 0.031625 0.808614
vt 0.453262 0.176159
vt 0.664081 0.176159
vt 0.664081 0.808614
vt 0.453262 0.808614
vt 0.453262 0.176159
vt 0.664081 0.176159
vt 0.664081 0.808614
vt 0.453262 0.808614
vt 0.453262 0.176159
vt 0.664081 0.176159
vt 0.664081 0.808614
vt 0.453262 0.808614
vt 0.453262 0.176159
vt 0.664081 0.176159
vt 0.664081 0.808614
vt 0.453262 0.808614
vt 0.031625 0.176159
vt 0.664081 0.176159
vt 0.664081 0.808614
vt 0.031625 0.808614
vt 0.453262 0.176159
vt 0.664081 0.176159
vt 0.664081 0.808614
vt 0.453262 0.808614
vt 0.453262 0.176159
vt 0.664081 0.176159
vt 0.664081 0.808614
vt 0.453262 0.808614
vt 0.031625 0.176159
vt 0.664081 0.176159
vt 0.664081 0.808614
vt 0.031625 0.808614
vt 0.031625 0.176159
vt 0.664081 0.176159
vt 0.664081 0.808614
vt 0.031625 0.808614
vt 0.031625 0.176159
vt 0.664081 0.176159
vt 0.664081 0.808614
vt 0.031625 0.808614
vt 0.031625 0.176159
vt 0.664081 0.176159
vt 0.664081 0.808614
vt 0.031625 0.808614
vt 0.031625 0.176159
vt 0.664081 0.176159
vt 0.664081 0.808614
vt 0.031625 0.808614
vt 0.453262 0.176159
vt 0.664081 0.176159
vt 0.664081 0.808614
vt 0.453262 0.808614
vt 0.453262 0.176159
vt 0.664081 0.176159
vt 0.664081 0.808614
vt 0.453262 0.808614
vt 0.453262 0.176159
vt 0.664081 0.176159
vt 0.664081 0.808614
vt 0.453262 0.808614
vt 0.453262 0.176159
vt 0.664081 0.176159
vt 0.664081 0.808614
vt 0.453262 0.808614
vt 0.031625 0.176159
vt 0.664081 0.176159
vt 0.664081 0.808614
vt 0.031625 0.808614
vt 0.031625 0.176159
vt 0.664081 0.176159
vt 0.664081 0.808614
vt 0.031625 0.808614
vt 0.031625 0.176159
vt 0.664081 0.176159
vt 0.664081 0.808614
vt 0.031625 0.808614
vt 0.031625 0.176159
vt 0.664081 0.176159
vt 0.664081 0.808614
vt 0.031625 0.808614
vt 0.453262 0.176159
vt 0.664081 0.176159
vt 0.664081 0.808614
vt 0.453262 0.808614
vt 0.031625 0.176159
vt 0.664081 0.176159
vt 0.664081 0.808614
vt 0.031625 0.808614
vt 0.031625 0.176159
vt 0.664081 0.176159
vt 0.664081 0.808614
vt 0.031625 0.808614
vt 0.453262 0.176159
vt 0.664081 0.176159
vt 0.664081 0.808614
vt 0.453262 0.808614
vt 0.453262 0.176159
vt 0.664081 0.176159
vt 0.664081 0.808614
vt 0.453262 0.808614
vt 0.453262 0.176159
vt 0.664081 0.176159
vt 0.664081 0.808614
vt 0.453262 0.808614
vt 0.453262 0.176159
vt 0.664081 0.176159
vt 0.664081 0.808614
vt 0.453262 0.808614
vt 0.453262 0.176159
vt 0.664081 0.176159
vt 0.664081 0.808614
vt 0.453262 0.808614
vt 0.031625 0.176159
vt 0.664081 0.176159
vt 0.664081 0.808614
vt 0.031625 0.808614
vt 0.596766 0.757833
vt 0.910390 0.757833
vt 0.910390 0.911862
vt 0.596766 0.911862
vt 0.031625 0.176159
vt 0.664081 0.176159
vt 0.664081 0.808614
vt 0.031625 0.808614
vt 0.031625 0.176159
vt 0.664081 0.176159
vt 0.664081 0.808614
vt 0.031625 0.808614
vt 0.453262 0.176159
vt 0.664081 0.176159
vt 0.664081 0.808614
vt 0.453262 0.808614
vt 0.031625 0.176159
vt 0.242444 0.176159
vt 0.242444 0.808614
vt 0.031625 0.808614
vt 0.596766 0.449776
vt 0.910390 0.449776
vt 0.910390 0.603805
vt 0.596766 0.603805
vt 0.031625 0.176159
vt 0.242444 0.176159
vt 0.242444 0.808614
vt 0.031625 0.808614
vt 0.031625 0.176159
vt 0.242444 0.176159
vt 0.242444 0.808614
vt 0.031625 0.808614
vt 0.031625 0.176159
vt 0.242444 0.176159
vt 0.242444 0.808614
vt 0.031625 0.808614
vt 0.031625 0.176159
vt 0.242444 0.176159
vt 0.242444 0.808614
vt 0.031625 0.808614
vt 0.242444 0.176159
vt 0.453262 0.176159
vt 0.031625 0.176159
vt 0.242444 0.176159
vt 0.242444 0.808614
vt 0.031625 0.808614
vt 0.031625 0.176159
vt 0.242444 0.176159
vt 0.242444 0.808614
vt 0.031625 0.808614
vt 0.031625 0.176159
vt 0.242444 0.176159
vt 0.242444 0.808614
vt 0.031625 0.808614
vt 0.031625 0.176159
vt 0.242444 0.176159
vt 0.242444 0.808614
vt 0.031625 0.808614
vt 0.031625 0.176159
vt 0.242444 0.176159
vt 0.242444 0.808614
vt 0.031625 0.808614
vt 0.031625 0.176159
vt 0.242444 0.176159
vt 0.242444 0.808614
vt 0.031625 0.808614
vt 0.031625 0.176159
vt 0.242444 0.176159
vt 0.242444 0.808614
vt 0.031625 0.808614
vt 0.031625 0.176159
vt 0.242444 0.176159
vt 0.242444 0.808614
vt 0.031625 0.808614
vt 0.031625 0.176159
vt 0.242444 0.176159
vt 0.242444 0.808614
vt 0.031625 0.808614
vt 0.031625 0.176159
vt 0.242444 0.176159
vt 0.242444 0.808614
vt 0.031625 0.808614
vt 0.031625 0.176159
vt 0.242444 0.176159
vt 0.242444 0.808614
vt 0.031625 0.808614
vt 0.031625 0.176159
vt 0.242444 0.176159
vt 0.242444 0.808614
vt 0.031625 0.808614
vt 0.031625 0.176159
vt 0.242444 0.176159
vt 0.242444 0.808614
vt 0.031625 0.808614
vt 0.031625 0.176159
vt 0.242444 0.176159
vt 0.242444 0.808614
vt 0.031625 0.808614
vt 0.031625 0.176159
vt 0.242444 0.176159
vt 0.242444 0.808614
vt 0.031625 0.808614
vt 0.031625 0.176159
vt 0.242444 0.176159
vt 0.242444 0.808614
vt 0.031625 0.808614
vt 0.031625 0.176159
vt 0.242444 0.176159
vt 0.242444 0.808614
vt 0.031625 0.808614
vt 0.031625 0.176159
vt 0.242444 0.176159
vt 0.242444 0.808614
vt 0.031625 0.808614
vt 0.031625 0.176159
vt 0.242444 0.176159
vt 0.242444 0.808614
vt 0.031625 0.808614
vt 0.031625 0.176159
vt 0.242444 0.176159
vt 0.242444 0.808614
vt 0.664081 0.386977
vt 0.031625 0.386977
vt 0.031625 0.176159
vt 0.664081 0.386977
vt 0.031625 0.386977
vt 0.031625 0.176159
vt 0.242444 0.176159
vt 0.242444 0.808614
vt 0.031625 0.808614
vt 0.242444 0.176159
vt 0.242444 0.808614
vt 0.031625 0.808614
vt 0.242444 0.176159
vt 0.453262 0.176159
vt 0.453262 0.808614
vt 0.453262 0.176159
vt 0.453262 0.808614
vt 0.242444 0.808614
vt 0.242444 0.176159
vt 0.242444 0.808614
vt 0.242444 0.808614
vt 0.242444 0.176159
vt 0.242444 0.176159
vt 0.242444 0.808614
vt 0.453262 0.808614
vt 0.242444 0.808614
vt 0.453262 0.808614
vt 0.453262 0.176159
vt 0.453262 0.176159
vt 0.453262 0.808614
vt 0.453262 0.808614
vt 0.242444 0.808614
vt 0.453262 0.808614
vt 0.453262 0.808614
vt 0.453262 0.176159
vt 0.242444 0.176159
vt 0.242444 0.176159
vt 0.453262 0.176159
vt 0.242444 0.808614
vt 0.242444 0.808614
vt 0.242444 0.176159
vt 0.242444 0.176159
vt 0.242444 0.176159
vt 0.242444 0.176159
vt 0.453262 0.176159
vt 0.453262 0.176159
vt 0.453262 0.176159
vt 0.453262 0.176159
vt 0.453262 0.176159
vt 0.453262 0.176159
vt 0.453262 0.808614
vt 0.242444 0.808614
vt 0.242444 0.176159
vt 0.242444 0.176159
vt 0.242444 0.176159
vt 0.242444 0.176159
vt 0.453262 0.808614
vt 0.242444 0.808614
vt 0.242444 0.808614
vt 0.453262 0.808614
vt 0.453262 0.808614
vt 0.242444 0.808614
vt 0.453262 0.176159
vt 0.453262 0.176159
vn 0.5489 0.8359 0.0000
vn 0.6974 -0.7166 0.0000
vn 1.0000 0.0000 0.0000
vn -0.0000 -0.0000 1.0000
vn -1.0000 -0.0000 -0.0000
vn 0.0000 0.0000 -1.0000
vn 0.0000 -1.0000 0.0000
vn -0.5489 0.8359 -0.0000
vn -0.0000 0.8359 0.5489
vn 0.0000 0.8359 -0.5489
vn -0.0000 -0.6992 0.7149
vn -0.6974 -0.7166 -0.0000
vn 0.0000 -0.7166 -0.6974
vn -0.0000 -0.7166 0.6974
vn -0.0000 -0.6224 0.7827
vn 0.7149 -0.6992 0.0000
vn -0.7149 -0.6992 -0.0000
vn 0.0000 -0.6992 -0.7149
vn -0.7799 -0.6259 -0.0000
vn 0.7827 -0.6224 0.0000
vn -0.7827 -0.6224 -0.0000
vn 0.0000 -0.6224 -0.7827
vn -0.0000 -0.8246 0.5657
vn 0.0000 -0.6259 -0.7799
vn -0.0000 -0.6259 0.7799
vn 0.7799 -0.6259 0.0000
vn 0.4072 -0.9133 0.0000
vn 0.5657 -0.8246 0.0000
vn -0.5657 -0.8246 -0.0000
vn 0.0000 -0.8246 -0.5657
vn -0.9224 -0.3861 -0.0000
vn -0.4072 -0.9133 0.0000
vn 0.0000 -0.9133 -0.4072
vn -0.0000 -0.9133 0.4072
vn 0.0000 -0.3861 -0.9224
vn -0.0000 -0.3861 0.9224
vn 0.9224 -0.3861 0.0000
vn -0.8460 0.5332 0.0012
vn -0.0000 0.7576 0.6527
vn 0.0000 0.5384 -0.8427
vn -0.0000 0.5384 0.8427
vn 0.8427 0.5384 0.0000
vn 0.0000 0.8161 -0.5779
vn 0.0000 0.7576 -0.6527
vn -0.6527 0.7576 -0.0000
vn 0.6524 0.7579 -0.0001
vn 0.7135 0.7006 0.0000
vn -0.5779 0.8161 -0.0000
vn 0.5779 0.8161 0.0000
vn -0.0000 0.8161 0.5779
vn 0.0000 1.0000 0.0000
vn -0.0000 0.7006 0.7135
vn 0.0000 0.7006 -0.7135
vn -0.7135 0.7006 -0.0000
vn 0.6508 0.7592 0.0005
vn -0.8474 0.5309 -0.0018
vn -0.8527 0.5224 0.0010
vn -0.0032 -1.0000 0.0000
vn -0.0309 0.0000 0.9995
vn -1.0000 0.0000 0.0056
vn 0.0455 0.0000 -0.9990
vn -0.0023 -0.0526 -0.9986
vn 0.0000 -0.0529 -0.9986
vn -0.0019 1.0000 0.0012
vn 0.0000 0.0358 0.9994
vn 1.0000 -0.0089 -0.0018
vn -0.7729 -0.6346 0.0015
vn 0.0021 0.0356 0.9994
vn -0.0014 -0.3260 0.9454
vn -0.0089 -1.0000 0.0000
vn -0.0044 -0.3260 -0.9454
vn 0.9956 -0.0933 0.0000
vn -0.9971 -0.0755 -0.0000
vn -0.0089 -1.0000 -0.0038
vn 0.0081 0.8184 0.5746
vn 0.0064 0.8171 -0.5765
vn 0.7655 -0.6435 -0.0053
vn 0.0012 -0.0016 1.0000
vn -0.0089 -1.0000 -0.0037
vn 0.0081 0.9521 -0.3056
vn 0.9999 -0.0089 -0.0055
vn -0.0012 0.0016 -1.0000
vn -0.9999 0.0089 0.0055
vn 0.0089 1.0000 0.0037
vn -0.3746 0.9272 0.0055
vn 0.0088 0.9499 0.3123
vn 0.3911 0.9203 0.0013
usemtl Material
s off
f 62/1/1 2/2/1 10/3/1 70/4/1
f 65/5/2 5/6/2 13/7/2 73/8/2
f 62/9/3 66/10/3 6/11/3 2/12/3
f 2/13/4 6/14/4 7/15/4 3/16/4
f 64/17/5 68/18/5 8/19/5 4/20/5
f 5/21/6 1/22/6 4/23/6 8/24/6
f 70/25/7 10/26/7 12/27/7 71/28/7
f 64/29/8 4/30/8 11/31/8 72/32/8
f 2/13/9 3/33/9 12/27/9 10/34/9
f 4/35/10 1/22/10 9/36/10 11/37/10
f 16/38/11 14/39/11 18/40/11 20/41/11
f 67/42/12 7/43/12 16/44/12 75/45/12
f 5/21/13 8/46/13 15/47/13 13/48/13
f 7/49/14 6/14/14 14/50/14 16/51/14
f 20/52/15 18/53/15 22/54/15 24/55/15
f 73/56/16 13/57/16 17/58/16 77/59/16
f 75/60/17 16/61/17 20/62/17 79/63/17
f 13/64/18 15/65/18 19/66/18 17/67/18
f 83/68/19 24/69/19 28/70/19 87/71/19
f 77/72/20 17/73/20 21/74/20 81/75/20
f 79/76/21 20/77/21 24/78/21 83/79/21
f 17/80/22 19/81/22 23/82/22 21/83/22
f 28/84/23 26/85/23 30/86/23 32/87/23
f 21/88/24 23/89/24 27/90/24 25/91/24
f 24/92/25 22/93/25 26/94/25 28/95/25
f 81/96/26 21/97/26 25/98/26 85/99/26
f 89/100/27 29/101/27 33/102/27 93/103/27
f 85/104/28 25/105/28 29/106/28 89/107/28
f 87/108/29 28/109/29 32/110/29 91/111/29
f 25/112/30 27/113/30 31/114/30 29/115/30
f 95/116/31 36/117/31 40/118/31 99/119/31
f 91/120/32 32/121/32 36/122/32 95/123/32
f 29/124/33 31/125/33 35/126/33 33/127/33
f 32/128/34 30/129/34 34/130/34 36/131/34
f 40/132/4 38/133/4 42/134/4 44/135/4
f 33/136/35 35/137/35 39/138/35 37/139/35
f 36/140/36 34/141/36 38/142/36 40/143/36
f 93/144/37 33/145/37 37/146/37 97/147/37
f 103/148/38 44/149/38 48/150/38 107/151/38
f 97/152/3 37/153/3 41/154/3 101/155/3
f 99/156/5 40/157/5 44/158/5 103/159/5
f 37/160/6 39/161/6 43/162/6 41/163/6
f 45/164/39 47/165/39 51/166/39 49/167/39
f 41/168/40 43/169/40 47/170/40 45/171/40
f 44/172/41 42/173/41 46/174/41 48/175/41
f 101/176/42 41/177/42 45/178/42 105/179/42
f 52/180/43 50/181/43 54/182/43 56/183/43
f 48/184/44 46/185/44 50/186/44 52/187/44
f 105/188/45 45/189/45 49/190/45 109/191/45
f 107/192/46 48/193/46 52/194/46 111/195/46
f 115/196/47 56/197/47 60/198/47 119/199/47
f 109/200/48 49/201/48 53/202/48 113/203/48
f 111/204/49 52/205/49 56/206/49 115/207/49
f 49/208/50 51/209/50 55/210/50 53/211/50
f 118/212/51 119/213/51 60/214/51 58/215/51
f 53/216/52 55/217/52 59/218/52 57/219/52
f 56/220/53 54/221/53 58/222/53 60/223/53
f 113/224/54 53/225/54 57/226/54 117/227/54
f 54/228/54 114/229/54 118/230/54 58/231/54
f 114/229/54 113/224/54 117/227/54 118/230/54
f 57/232/51 59/233/51 120/234/51 117/235/51
f 117/235/51 120/234/51 119/213/51 118/212/51
f 51/236/49 112/237/49 116/238/49 55/239/49
f 112/237/49 111/204/49 115/207/49 116/238/49
f 50/240/48 110/241/48 114/242/48 54/243/48
f 110/241/48 109/200/48 113/203/48 114/242/48
f 55/244/47 116/245/47 120/246/47 59/247/47
f 116/245/47 115/196/47 119/199/47 120/246/47
f 47/248/55 108/249/55 112/250/55 51/251/55
f 111/204/3 112/237/3 124/252/3 123/253/3
f 46/254/45 106/255/45 110/256/45 50/257/45
f 106/255/45 105/188/45 109/191/45 110/256/45
f 42/258/42 102/259/42 106/260/42 46/261/42
f 102/259/42 101/176/42 105/179/42 106/260/42
f 39/262/5 100/263/5 104/264/5 43/265/5
f 100/263/5 99/156/5 103/159/5 104/264/5
f 38/266/3 98/267/3 102/268/3 42/269/3
f 98/267/3 97/152/3 101/155/3 102/268/3
f 43/270/56 104/271/56 108/272/56 47/273/56
f 104/271/57 103/148/57 107/151/57 108/272/57
f 34/274/37 94/275/37 98/276/37 38/277/37
f 94/275/37 93/144/37 97/147/37 98/276/37
f 31/278/32 92/279/32 96/280/32 35/281/32
f 92/279/32 91/120/32 95/123/32 96/280/32
f 35/282/31 96/283/31 100/284/31 39/285/31
f 96/283/31 95/116/31 99/119/31 100/284/31
f 27/286/29 88/287/29 92/288/29 31/289/29
f 88/287/29 87/108/29 91/111/29 92/288/29
f 26/290/28 86/291/28 90/292/28 30/293/28
f 86/291/28 85/104/28 89/107/28 90/292/28
f 30/294/27 90/295/27 94/296/27 34/297/27
f 90/295/27 89/100/27 93/103/27 94/296/27
f 22/298/26 82/299/26 86/300/26 26/301/26
f 82/299/26 81/96/26 85/99/26 86/300/26
f 19/302/21 80/303/21 84/304/21 23/305/21
f 80/303/21 79/76/21 83/79/21 84/304/21
f 18/306/20 78/307/20 82/308/20 22/309/20
f 78/307/20 77/72/20 81/75/20 82/308/20
f 23/310/19 84/311/19 88/312/19 27/313/19
f 84/311/19 83/68/19 87/71/19 88/312/19
f 15/314/17 76/315/17 80/316/17 19/317/17
f 76/315/17 75/60/17 79/63/17 80/316/17
f 14/318/16 74/319/16 78/320/16 18/321/16
f 74/319/16 73/56/16 77/59/16 78/320/16
f 8/322/12 68/323/12 76/324/12 15/325/12
f 68/323/12 67/42/12 75/45/12 76/324/12
f 3/326/8 63/327/8 71/328/8 12/329/8
f 63/327/8 64/29/8 72/32/8 71/328/8
f 9/330/7 69/331/7 72/332/7 11/37/7
f 69/331/7 70/25/7 71/28/7 72/332/7
f 3/326/5 7/43/5 67/333/5 63/334/5
f 63/334/5 67/333/5 68/18/5 64/17/5
f 1/335/3 5/6/3 65/336/3 61/337/3
f 61/337/3 65/336/3 66/10/3 62/9/3
f 6/338/2 66/339/2 74/340/2 14/341/2
f 66/339/2 65/5/2 73/8/2 74/340/2
f 1/335/1 61/342/1 69/343/1 9/344/1
f 61/342/1 62/1/1 70/4/1 69/343/1
f 123/253/58 124/252/58 128/345/58 127/346/58
f 107/192/59 111/195/59 123/347/59 121/348/59
f 108/272/60 107/151/60 121/349/60 122/350/60
f 112/250/61 108/249/61 122/351/61 124/352/61
f 128/353/62 126/354/62 130/355/62 132/356/62
f 124/352/63 122/351/63 126/354/63 128/353/63
f 122/350/64 121/349/64 125/357/64 126/358/64
f 121/348/65 123/347/65 127/359/65 125/360/65
f 130/355/66 129/361/66 131/362/66 132/356/66
f 126/358/67 125/357/67 137/363/67 138/364/67
f 125/360/68 127/359/68 131/362/68 129/361/68
f 131/362/69 127/359/69 133/365/69 135/366/69
f 133/367/70 134/368/70 136/369/70 135/370/70
f 128/353/71 132/356/71 136/371/71 134/372/71
f 132/356/72 131/362/72 135/366/72 136/371/72
f 127/346/73 128/345/73 134/368/73 133/367/73
f 140/373/74 138/374/74 142/375/74 144/376/74
f 125/360/75 129/361/75 139/377/75 137/378/75
f 130/355/76 126/354/76 138/374/76 140/373/76
f 129/361/77 130/355/77 140/373/77 139/377/77
f 141/379/78 143/380/78 147/381/78 145/382/78
f 138/364/79 137/363/79 141/383/79 142/384/79
f 137/378/79 139/377/79 143/380/79 141/379/79
f 139/377/79 140/373/79 144/376/79 143/380/79
f 148/385/80 146/386/80 150/387/80 152/388/80
f 143/380/81 144/376/81 148/385/81 147/381/81
f 144/376/82 142/375/82 146/386/82 148/385/82
f 142/384/83 141/383/83 145/389/83 146/390/83
f 150/391/84 149/392/84 151/393/84 152/394/84
f 146/390/85 145/389/85 149/392/85 150/391/85
f 145/382/86 147/381/86 151/395/86 149/396/86
f 147/381/87 148/385/87 152/388/87 151/395/87
