mtllib table.mtl
o Cube_Cube.001
v -1.000000 -0.009644 2.338616
v -1.000000 0.120378 2.338616
v -1.000000 -0.009644 -2.338616
v -1.000000 0.120378 -2.338616
v 1.000000 -0.009644 2.338616
v 1.000000 0.120378 2.338616
v 1.000000 -0.009644 -2.338616
v 1.000000 0.120378 -2.338616
v 0.104108 -0.009644 -2.338616
v -0.104108 -0.009644 -2.338616
v -0.104108 0.120378 -2.338616
v 0.104108 0.120378 -2.338616
v -0.104108 -0.009644 2.338616
v 0.104108 -0.009644 2.338616
v 0.104108 0.120378 2.338616
v -0.104108 0.120378 2.338616
v -0.104108 1.042814 -2.338616
v 0.104108 1.042814 -2.338616
v 0.104108 1.042814 2.338616
v -0.104108 1.042814 2.338616
v 0.104108 1.180487 2.338616
v -0.104108 1.180487 2.338616
v -0.104108 1.180487 -2.338616
v 0.104108 1.180487 -2.338616
v -0.994093 1.042814 -2.338616
v -0.994093 1.042814 2.338616
v -0.994093 1.180487 -2.338616
v -0.994093 1.180487 2.338616
v 0.981702 1.042814 -2.338616
v 0.981702 1.042814 2.338616
v 0.981702 1.180487 -2.338616
v 0.981702 1.180487 2.338616
vt 0.152651 0.465353
vt 0.162375 0.451643
vt 0.837625 0.451642
vt 0.847349 0.465353
vt 0.859464 0.181617
vt 0.828881 0.181641
vt 0.827514 0.013669
vt 0.836680 0.000068
vt 0.172486 0.013670
vt 0.163319 0.000068
vt 0.132136 0.272789
vt 0.161522 0.279097
vt 0.838478 0.279096
vt 0.861513 0.221625
vt 0.827248 0.240555
vt 1.183181 -0.077538
vt 1.186033 0.272846
vt -0.186033 0.272848
vt -0.183182 -0.077535
vt 0.138488 0.221626
vt 0.171119 0.181642
vt 0.172752 0.240556
vt 0.140536 0.181618
vt 0.867864 0.272788
vt 0.184282 0.277066
vt 0.181504 0.230192
vt 0.158708 0.267340
vt 0.113731 0.211448
vt 0.000068 0.255746
vt 0.054348 0.180799
vt 0.945652 0.180797
vt 0.999932 0.255744
vt 0.886268 0.211446
vt 0.841292 0.267339
vt 0.818496 0.230191
vt 0.815718 0.277065
vt 0.504423 1.000647
vt 0.472108 1.000647
vt 0.333983 1.000647
vt 0.333983 0.032780
vt 0.472108 0.032780
vt 0.504423 0.032780
vt 0.640624 0.032780
vt 0.640624 1.000647
vn -1.0000 0.0000 0.0000
vn 0.0000 0.0000 -1.0000
vn 1.0000 0.0000 0.0000
vn -0.0000 0.0000 1.0000
vn 0.0000 1.0000 0.0000
vn 0.0000 -1.0000 0.0000
usemtl None
s off
f 1/1/1 2/2/1 4/3/1 3/4/1
f 9/5/2 12/6/2 8/7/2 7/8/2
f 7/8/3 8/7/3 6/9/3 5/10/3
f 13/11/4 16/12/4 2/2/4 1/1/4
f 12/6/2 11/13/2 17/14/2 18/15/2
f 11/13/5 4/3/5 2/2/5 16/12/5
f 8/16/5 12/17/5 15/18/5 6/19/5
f 11/13/1 16/12/1 20/20/1 17/14/1
f 16/12/4 15/21/4 19/22/4 20/20/4
f 5/10/4 6/9/4 15/21/4 14/23/4
f 14/23/4 15/21/4 16/12/4 13/11/4
f 3/4/2 4/3/2 11/13/2 10/24/2
f 10/24/2 11/13/2 12/6/2 9/5/2
f 15/21/3 12/6/3 18/15/3 19/22/3
f 20/20/4 19/22/4 30/25/4 32/26/4 21/27/4 22/28/4 28/29/4 26/30/4
f 18/15/2 17/14/2 25/31/2 27/32/2 23/33/2 24/34/2 31/35/2 29/36/2
f 25/31/1 26/30/1 28/29/1 27/32/1
f 17/14/6 20/20/6 26/30/6 25/31/6
f 30/25/3 29/36/3 31/35/3 32/26/3
f 19/22/6 18/15/6 29/36/6 30/25/6
f 24/37/5 23/38/5 27/39/5 28/40/5 22/41/5 21/42/5 32/43/5 31/44/5
